<?xml version="1.0" encoding="UTF-8"?>
<svg version="1.1" xmlns="http://www.w3.org/2000/svg" width="512" height="512">
<path d="M0 0 C2.43079897 0.00315247 4.86036642 -0.02037594 7.29101562 -0.0456543 C21.55665579 -0.10472937 35.99766887 1.17189393 49.38476562 6.44067383 C50.16601807 6.74070312 50.94727051 7.04073242 51.75219727 7.34985352 C65.08446213 12.67570176 75.55914929 20.26958276 85.69726562 30.31567383 C86.37402344 30.94344727 87.05078125 31.5712207 87.74804688 32.21801758 C102.11295553 45.75479403 112.03322299 66.76386732 113.69726562 86.31567383 C114.84557861 86.28425293 114.84557861 86.28425293 116.01708984 86.25219727 C119.53534447 86.16829021 123.05338765 86.11677787 126.57226562 86.06567383 C127.77625 86.0321582 128.98023438 85.99864258 130.22070312 85.96411133 C142.61567483 85.82938337 151.47110843 89.35715209 160.38476562 97.94067383 C173.63699313 112.25307954 171.33412278 136.15008233 172.45117068 154.35985529 C172.66701551 157.86038542 172.88867621 161.36054832 173.10955811 164.86076355 C173.53990164 171.69469395 173.96495699 178.52894312 174.38811006 185.36332212 C174.88189995 193.33571361 175.38079268 201.30778343 175.87980722 209.27984931 C176.77023365 223.50808527 177.65573381 237.73662355 178.53857422 251.96533203 C179.39385071 265.74976969 180.25315528 279.53394887 181.11669922 293.31787109 C182.05917038 308.3617246 182.99948889 323.40570966 183.9360131 338.44993466 C184.03596361 340.05549733 184.13591476 341.66105996 184.23586655 343.26662254 C184.30961256 344.45131672 184.30961256 344.45131672 184.38484839 345.65994412 C184.73036754 351.20845582 185.07735286 356.75687471 185.42486954 362.30526161 C185.84842897 369.06876268 186.26946062 375.83241575 186.68734826 382.5962697 C186.90034012 386.04283111 187.11438848 389.48931769 187.33142471 392.93562698 C187.56658072 396.67921142 187.79750251 400.42303431 188.02737427 404.16694641 C188.0960471 405.24458435 188.16471993 406.32222229 188.23547375 407.43251592 C189.91928959 435.24382543 189.91928959 435.24382543 180.38476562 446.54223633 C172.75696487 454.5584899 164.49408656 459.87447828 153.12915087 460.444475 C152.20854105 460.44626357 151.28793122 460.44805214 150.33942413 460.44989491 C148.73763833 460.45658167 148.73763833 460.45658167 147.10349321 460.46340352 C145.9362948 460.46321916 144.76909638 460.4630348 143.56652832 460.46284485 C142.32186153 460.46652154 141.07719474 460.47019822 139.79481077 460.47398633 C136.34231061 460.48309752 132.88985793 460.48771943 129.43735027 460.49037564 C125.71253919 460.49428554 121.98774178 460.50386345 118.26293945 460.5125885 C109.26822263 460.53233433 100.27350471 460.54241708 91.27877164 460.55131629 C87.03964239 460.55570258 82.80051438 460.56106853 78.56138611 460.56630516 C64.46353668 460.58331613 50.36568801 460.59780911 36.2678299 460.6050539 C32.61084492 460.6069637 28.95385995 460.60888404 25.296875 460.61083984 C23.93353913 460.61156545 23.93353913 460.61156545 22.54266113 460.61230572 C7.82744164 460.62060161 -6.88769645 460.64593165 -21.60288042 460.67842052 C-36.72153902 460.71152717 -51.84015631 460.72950595 -66.95885134 460.73269814 C-75.44299144 460.73485998 -83.92701286 460.74356071 -92.41111755 460.76915932 C-99.63836406 460.79091569 -106.86546303 460.79889257 -114.09273857 460.78919253 C-117.77643391 460.78466196 -121.45982518 460.78646083 -125.14347839 460.80595398 C-129.14790637 460.82696039 -133.1516664 460.81655509 -137.15612793 460.80342102 C-138.30548057 460.81439027 -139.45483321 460.82535951 -140.63901472 460.83666116 C-153.52298045 460.73511438 -163.89039428 457.3924759 -173.20117188 448.50317383 C-181.11548885 440.22152569 -183.48731011 430.51514368 -183.37866187 419.33616102 C-183.25134794 414.27145955 -182.95501143 409.22252529 -182.63284302 404.16694641 C-182.56075021 402.99277371 -182.4886574 401.81860101 -182.41437995 400.60884732 C-182.21547949 397.38077693 -182.01355378 394.15291302 -181.81027865 390.9251157 C-181.59101618 387.43159813 -181.37570235 383.93783675 -181.15985107 380.44410706 C-180.73701346 373.61071392 -180.31045531 366.777558 -179.88247384 359.94448528 C-179.53432248 354.38526626 -179.18739917 348.82597189 -178.8413353 343.26662254 C-178.79195624 342.47342846 -178.74257718 341.68023438 -178.69170179 340.86300411 C-178.59136627 339.25125675 -178.49103173 337.63950933 -178.39069818 336.02776184 C-177.45075077 320.93144345 -176.50637437 305.83540453 -175.56063329 290.73944815 C-174.69738978 276.9581366 -173.8396551 263.17648872 -172.98454262 249.39467046 C-172.10467113 235.21461059 -171.22108082 221.0347869 -170.33350456 206.85520715 C-169.83599307 198.90613037 -169.3399116 190.95697082 -168.8477211 183.00756264 C-168.42855047 176.23818162 -168.00583277 169.46903309 -167.57868089 162.70015083 C-167.36125838 159.25326272 -167.14536905 155.80629839 -166.93390274 152.35903931 C-164.04763308 105.48625122 -164.04763308 105.48625122 -152.36523438 94.84692383 C-144.95934424 89.34861145 -138.21411871 86.17458239 -129.00585938 86.21801758 C-127.19794922 86.22285156 -127.19794922 86.22285156 -125.35351562 86.2277832 C-124.09925781 86.23616211 -122.845 86.24454102 -121.55273438 86.25317383 C-119.64814453 86.25994141 -119.64814453 86.25994141 -117.70507812 86.2668457 C-114.57091601 86.27862827 -111.43684896 86.29507967 -108.30273438 86.31567383 C-108.25375 85.74719727 -108.20476562 85.1787207 -108.15429688 84.59301758 C-106.34996536 65.95862829 -96.94446639 47.9141875 -84.30273438 34.31567383 C-83.86622559 33.83291992 -83.4297168 33.35016602 -82.97998047 32.8527832 C-61.14753276 8.85634332 -31.81966984 -0.08584443 0 0 Z M-62.30273438 59.31567383 C-67.89114009 67.10756166 -74.30273438 76.43086892 -74.30273438 86.31567383 C-23.48273438 86.31567383 27.33726562 86.31567383 79.69726562 86.31567383 C78.0502426 74.78651263 72.42872146 64.96953762 64.69726562 56.31567383 C64.09269531 55.62989258 63.488125 54.94411133 62.86523438 54.23754883 C50.19315254 40.71377922 31.86456249 33.59404589 13.50871277 32.95568848 C10.63295847 32.90362554 7.75986589 32.89944478 4.88378906 32.92456055 C2.69858431 32.94066411 0.51522793 32.92459972 -1.66992188 32.90551758 C-25.48288323 32.86933912 -46.59642366 40.87265745 -62.30273438 59.31567383 Z M-9.05273438 198.50317383 C-14.13557102 204.85671963 -13.57747627 212.83562568 -13.49804688 220.59692383 C-13.49380203 222.17805969 -13.49380203 222.17805969 -13.48947144 223.7911377 C-13.47834424 227.13276892 -13.45325341 230.47412464 -13.42773438 233.81567383 C-13.41769494 236.0917116 -13.40857078 238.36775361 -13.40039062 240.64379883 C-13.37842938 246.2011833 -13.34502667 251.75840887 -13.30273438 257.31567383 C-13.92834259 257.30901199 -14.55395081 257.30235016 -15.19851685 257.29548645 C-21.7198573 257.2290282 -28.24110127 257.18382956 -34.76269531 257.15087891 C-37.19535226 257.13580849 -39.62798212 257.1153486 -42.06054688 257.08935547 C-45.56061498 257.05289643 -49.06032327 257.03592963 -52.56054688 257.02270508 C-53.64514191 257.00722122 -54.72973694 256.99173737 -55.84719849 256.9757843 C-63.12142287 256.97416929 -67.53519616 257.85563986 -73.11523438 262.81567383 C-76.67627626 266.88543598 -76.65171186 270.62217034 -76.57617188 275.81176758 C-76.16275998 279.59743935 -74.87426705 281.54633095 -72.30273438 284.31567383 C-66.08686522 288.90388888 -60.80907137 288.84811123 -53.24414062 288.70629883 C-51.52770607 288.69780914 -51.52770607 288.69780914 -49.77659607 288.68914795 C-46.13904136 288.66684338 -42.50248897 288.61665551 -38.86523438 288.56567383 C-36.39194136 288.54560129 -33.91863283 288.52735184 -31.4453125 288.51098633 C-25.39744725 288.4669979 -19.35016244 288.40014408 -13.30273438 288.31567383 C-13.30939621 289.19104797 -13.30939621 289.19104797 -13.31619263 290.08410645 C-13.36060254 296.18405701 -13.39067388 302.28396127 -13.41259766 308.3840332 C-13.42262571 310.6574897 -13.43625149 312.93093339 -13.45361328 315.2043457 C-13.47800221 318.48107065 -13.48924972 321.75762434 -13.49804688 325.03442383 C-13.50836945 326.04307495 -13.51869202 327.05172607 -13.52932739 328.09094238 C-13.53040336 334.93149397 -13.26036006 341.1694897 -9.55273438 347.12817383 C-5.74420478 350.83091093 -2.6484537 352.16614946 2.63476562 352.75317383 C7.05389329 352.55883361 10.29514368 351.11335787 13.69726562 348.31567383 C19.47276988 341.32427394 18.83860819 333.85456592 18.79492188 325.22973633 C18.79350693 324.17281586 18.79209198 323.11589539 18.79063416 322.02694702 C18.78505502 318.66482667 18.77250632 315.30277391 18.75976562 311.94067383 C18.75474793 309.65551854 18.75018549 307.37036221 18.74609375 305.08520508 C18.73509242 299.49533843 18.71837506 293.90551096 18.69726562 288.31567383 C19.3331813 288.32455627 19.96909698 288.33343872 20.62428284 288.34259033 C27.25927721 288.43127258 33.89410245 288.49149489 40.52954102 288.53540039 C43.00389447 288.55548154 45.47820067 288.58275206 47.95239258 288.61743164 C51.5146045 288.6661016 55.07618743 288.68867837 58.63867188 288.70629883 C60.29063316 288.73726654 60.29063316 288.73726654 61.97596741 288.76885986 C68.46983984 288.77074536 72.42772149 288.20536345 77.69726562 284.31567383 C81.01843408 280.73903088 81.96474395 278.02086496 82.13476562 273.25317383 C81.90520146 268.30643624 80.89745357 265.42569013 77.26757812 261.94458008 C73.07488332 258.26293514 70.14380859 257.18864533 64.67504883 257.20214844 C63.65421707 257.20222397 62.63338531 257.2022995 61.58161926 257.20237732 C59.93150093 257.21011925 59.93150093 257.21011925 58.24804688 257.21801758 C57.12029343 257.21943253 55.99253998 257.22084747 54.83061218 257.2223053 C51.22363651 257.22790912 47.61672258 257.2404623 44.00976562 257.25317383 C41.56640715 257.25818833 39.12304769 257.26275133 36.6796875 257.2668457 C30.68552575 257.2778798 24.6914001 257.29462168 18.69726562 257.31567383 C18.70392746 256.73431168 18.71058929 256.15294952 18.717453 255.55397034 C18.7841348 249.47011886 18.8292018 243.38637223 18.86206055 237.30224609 C18.8770907 235.03560159 18.89752044 232.76898589 18.92358398 230.50244141 C18.9602215 227.2330817 18.97705022 223.96410856 18.99023438 220.69458008 C19.00571823 219.69109024 19.02120209 218.6876004 19.03715515 217.65370178 C19.03900252 209.82442542 18.2930611 202.58740762 12.57226562 196.81567383 C5.01585856 191.0804727 -2.05537986 192.93709637 -9.05273438 198.50317383 Z " fill="#000000" transform="translate(253.302734375,25.684326171875)"/>
</svg>
