<?xml version="1.0" encoding="UTF-8"?>
<svg version="1.1" xmlns="http://www.w3.org/2000/svg" width="512" height="512">
<path d="M0 0 C0.45165527 -0.39759521 0.90331055 -0.79519043 1.36865234 -1.20483398 C16.97977984 -14.79474871 36.66128473 -20.81672915 57.22265625 -20.27734375 C79.10742893 -18.67049901 98.40139815 -9.80770356 113.65625 6.21484375 C128.44653551 23.79063304 135.70557466 45.06949617 134 68 C132.00466072 84.89387255 126.16334911 98.42176559 116 112 C115.34 112.99 114.68 113.98 114 115 C114.46445422 117.2042747 114.46445422 117.2042747 115.5625 119.55078125 C115.94446533 120.46520996 116.32643066 121.37963867 116.7199707 122.32177734 C117.35358521 123.80218506 117.35358521 123.80218506 118 125.3125 C138.25787512 175.00133381 140.10916589 233.31114773 122 284 C121.73380859 284.77166504 121.46761719 285.54333008 121.19335938 286.33837891 C114.18168753 306.54639701 104.61523957 325.69402347 92 343 C91.59571777 343.5583252 91.19143555 344.11665039 90.77490234 344.69189453 C85.45967987 351.97056819 79.69729242 358.71307437 73.53125 365.28125 C71.39184482 367.57912963 69.3398101 369.91658807 67.3125 372.3125 C63.85487533 376.28266668 60.02028967 379.61378286 56 383 C55.08734375 383.81210937 54.1746875 384.62421875 53.234375 385.4609375 C18.83019994 415.84362953 -25.730678 433.68167572 -71 439 C-72.08410156 439.13148438 -73.16820312 439.26296875 -74.28515625 439.3984375 C-133.30786826 445.15295751 -194.32797857 426.97461432 -240.1640625 389.41796875 C-250.7086093 380.67582765 -261.36224358 371.6701697 -270 361 C-270.91144285 359.90102882 -271.82290281 358.80207184 -272.734375 357.703125 C-311.32160259 310.75387969 -330.61996116 251.11210232 -325.50390625 190.33984375 C-320.57439617 140.55847354 -301.29499026 93.35272628 -267.2109375 56.3984375 C-265.71609211 54.77682077 -264.24248089 53.13541106 -262.7890625 51.4765625 C-227.33892185 11.05096351 -173.671155 -12.81209459 -121 -19 C-119.91589844 -19.13148437 -118.83179688 -19.26296875 -117.71484375 -19.3984375 C-77.16829527 -23.35159242 -37.43078791 -15.27971777 0 0 Z M-238.89453125 73.98828125 C-240.63788121 75.96026727 -242.32037522 77.97349619 -244 80 C-244.75796875 80.87011719 -245.5159375 81.74023438 -246.296875 82.63671875 C-252.90707935 90.32467381 -258.66822412 98.37751869 -264 107 C-264.4125 107.66708984 -264.825 108.33417969 -265.25 109.02148438 C-292.34295987 153.59786991 -299.56642193 207.50357273 -287.4375 258 C-279.22821031 289.94980989 -263.48785301 317.32876136 -242 342 C-241.02546875 343.16015625 -241.02546875 343.16015625 -240.03125 344.34375 C-236.04514401 349.05460253 -231.71574697 353.03215948 -227 357 C-226.05253906 357.8353125 -225.10507813 358.670625 -224.12890625 359.53125 C-216.22104103 366.46437601 -207.95578154 372.48958852 -199 378 C-198.33436035 378.4110498 -197.6687207 378.82209961 -196.98291016 379.24560547 C-152.40646383 406.34275217 -98.49858182 413.56693944 -48 401.4375 C-16.05019011 393.22821031 11.32876136 377.48785301 36 356 C36.7734375 355.3503125 37.546875 354.700625 38.34375 354.03125 C43.05460253 350.04514401 47.03215948 345.71574697 51 341 C51.8353125 340.05253906 52.670625 339.10507812 53.53125 338.12890625 C60.46437601 330.22104103 66.48958852 321.95578154 72 313 C72.4110498 312.33436035 72.82209961 311.6687207 73.24560547 310.98291016 C100.39659586 266.3178877 107.19586021 213.15243081 95.43359375 162.6328125 C93.15519986 153.36342216 90.59186893 143.42205343 86 135 C83.12191959 135.52580315 80.35110652 136.18195324 77.53125 136.97265625 C54.2352338 143.41635944 32.19092259 140.37864369 11 128.875 C-7.24280374 117.81008374 -19.20093566 100.14542198 -24.45703125 79.53515625 C-27.85163562 63.68552865 -26.33285907 48.45212391 -22 33 C-21.64775479 31.33722756 -21.30546144 29.67199946 -21 28 C-94.08882971 -5.03052881 -184.33484907 16.72873851 -238.89453125 73.98828125 Z M17.16015625 29.41796875 C7.90384254 40.48202546 4.74627152 53.83426901 6 68 C8.43024672 81.07355615 15.10093894 92.28967353 26 100 C38.13572176 107.18857397 49.75497066 110.06787788 63.91015625 107.46484375 C66.35079912 106.77452282 68.65413699 105.96176202 71 105 C71.67160156 104.74476563 72.34320313 104.48953125 73.03515625 104.2265625 C84.43421754 99.28621387 93.52841912 88.61834682 98.1875 77.28125 C102.84783479 64.19646387 101.58857751 51.48836488 95.875 38.875 C89.46994825 26.99896655 78.98699249 18.38772778 66.0703125 14.5078125 C47.4485128 9.94020125 30.25908044 15.57172083 17.16015625 29.41796875 Z " fill="#000000" transform="translate(352,46)"/>
<path d="M0 0 C1.87399332 1.79925413 3.68686702 3.63749275 5.5 5.5 C6.17675781 6.17933594 6.85351562 6.85867187 7.55078125 7.55859375 C21.74593925 22.6979973 26.0737599 41.90593696 25.76953125 62.03515625 C25.06329787 82.07757257 15.48944756 100.01262311 1.16796875 113.734375 C-11.4503882 124.53217298 -27.82814976 131.79512398 -44.5 132.5 C-45.263125 132.53996094 -46.02625 132.57992187 -46.8125 132.62109375 C-66.7395574 133.16397833 -85.79648101 126.03452289 -100.87109375 113.06640625 C-115.49830811 98.78694142 -124.26825718 80.16243621 -124.97070312 59.70556641 C-125.21656728 37.00001193 -117.38435479 18.82441594 -101.75 2.375 C-90.83159771 -8.27911418 -77.35470729 -14.53317913 -62.5 -17.5 C-61.78714844 -17.644375 -61.07429688 -17.78875 -60.33984375 -17.9375 C-38.97276971 -21.23107596 -15.87603119 -14.61802555 0 0 Z M-81.609375 29.01953125 C-89.67969639 39.60765952 -92.32744577 50.38345218 -91.5 63.5 C-89.63043679 74.52725418 -83.28543233 84.64235935 -74.5 91.5 C-63.30882483 98.37043496 -52.53273888 101.16096152 -39.625 98.375 C-28.57985004 95.38418483 -19.29520449 88.99450691 -13.484375 79.05078125 C-7.76809674 68.17945415 -5.34822073 57.49440883 -8.625 45.3125 C-12.60727143 33.8843071 -19.65589075 24.81437337 -30.375 19.125 C-48.39656034 10.7513457 -67.86779157 14.57969663 -81.609375 29.01953125 Z " fill="#000000" transform="translate(305.5,169.5)"/>
<path d="M0 0 C1.63956665 -0.0129007 1.63956665 -0.0129007 3.31225586 -0.02606201 C5.10442535 -0.03245193 5.10442535 -0.03245193 6.93280029 -0.03897095 C8.8263324 -0.05123718 8.8263324 -0.05123718 10.75811768 -0.06375122 C14.94490436 -0.0899275 19.13170074 -0.10528595 23.31854248 -0.11953735 C24.76567337 -0.12490101 26.21280421 -0.13027852 27.659935 -0.13566971 C33.6889268 -0.15730222 39.71791601 -0.17603063 45.7469368 -0.1872921 C54.35090609 -0.20347401 62.9544197 -0.23650591 71.55821729 -0.29369295 C77.62558884 -0.33262492 83.69283979 -0.35195269 89.76033282 -0.35721266 C93.37380824 -0.36083786 96.98679724 -0.37254958 100.6001358 -0.4053154 C123.10489761 -0.59870375 141.10590669 0.40530982 158.41253662 16.43344116 C160.00251059 17.99749812 161.58156582 19.57271789 163.15057373 21.1578064 C163.99591171 21.99931747 164.84124969 22.84082855 165.71220398 23.70783997 C167.47904495 25.47198049 169.24093167 27.24109591 170.99798584 29.01498413 C173.6883543 31.72692063 176.39960511 34.41666514 179.11346436 37.10507202 C180.83545262 38.82970126 182.55620087 40.55556971 184.27557373 42.2828064 C185.48794456 43.48303185 185.48794456 43.48303185 186.72480774 44.70750427 C191.73799108 49.805515 194.27818396 53.37688473 194.92791748 60.65390015 C194.43007964 66.22968392 192.40943208 69.64850944 188.42791748 73.46640015 C184.58193559 76.53028509 181.48466461 77.41087696 176.61541748 77.15390015 C168.84182409 75.72973604 164.45709302 71.7512697 159.17791748 66.1265564 C158.03045044 64.94856728 158.03045044 64.94856728 156.85980225 63.7467804 C154.42999456 61.25067114 152.02088146 58.73596205 149.61541748 56.21640015 C147.20914137 53.70129627 144.79847012 51.19142752 142.37103271 48.69673157 C140.86579833 47.14957613 139.37232897 45.59085417 137.89300537 44.01890564 C137.2019873 43.30814377 136.51096924 42.5973819 135.79901123 41.86508179 C135.20660645 41.24347672 134.61420166 40.62187164 134.00384521 39.98143005 C126.59419509 34.31186048 119.48862568 33.56690906 110.36956787 33.62045288 C109.17487381 33.61183731 107.98017975 33.60322174 106.74928284 33.59434509 C103.49697367 33.57563146 100.24531294 33.57475605 96.99298024 33.58366656 C94.26703316 33.58880626 91.54117577 33.58145988 88.81523794 33.57419449 C82.37916531 33.55724164 75.94333004 33.5607143 69.50726318 33.57748413 C62.89110071 33.59440147 56.27559824 33.57856654 49.65950781 33.54626125 C43.95640787 33.51947998 38.2535123 33.5123122 32.55035585 33.52077633 C29.15406317 33.52568081 25.75816722 33.52362618 22.36192513 33.50298882 C18.57101981 33.48549905 14.78151169 33.50012559 10.99066162 33.52279663 C9.88126221 33.51110443 8.77186279 33.49941223 7.62884521 33.48736572 C-0.90885702 33.5908388 -7.09518581 35.83827419 -13.8553009 41.0637207 C-14.42772018 41.66534027 -15.00013947 42.26695984 -15.58990479 42.8868103 C-16.26082657 43.57747589 -16.93174835 44.26814148 -17.6230011 44.97973633 C-18.30873703 45.71010101 -18.99447296 46.4404657 -19.70098877 47.19296265 C-21.2224215 48.75811702 -22.74390746 50.32321965 -24.26544189 51.88827515 C-26.61513696 54.33756482 -28.95944543 56.79186947 -31.30133057 59.24862671 C-33.58843806 61.63861942 -35.89380357 64.00987108 -38.20098877 66.38046265 C-38.88874893 67.11487579 -39.57650909 67.84928894 -40.28511047 68.60595703 C-45.50877731 73.95941297 -50.62150453 76.92300301 -58.20489502 77.2906189 C-64.26148335 76.11009744 -67.27380189 73.95217694 -71.10723877 69.1265564 C-73.66322967 65.179231 -73.69106819 61.75118522 -73.38458252 57.15390015 C-71.25507649 50.35417789 -67.10142806 46.30323956 -62.09552002 41.3687439 C-60.86873032 40.13977135 -60.86873032 40.13977135 -59.61715698 38.88597107 C-57.88869198 37.15916179 -56.15528893 35.43728294 -54.41729736 33.72006226 C-51.77717619 31.10880149 -49.156115 28.47949741 -46.53692627 25.84725952 C-44.849233 24.16580732 -43.16046494 22.48543306 -41.47052002 20.8062439 C-40.69517914 20.02796738 -39.91983826 19.24969086 -39.1210022 18.4478302 C-32.24456728 11.68762516 -25.26670597 6.39945622 -16.07208252 3.34140015 C-14.90032471 2.94307983 -13.72856689 2.54475952 -12.52130127 2.1343689 C-8.17125852 0.77464196 -4.57778464 0.02688121 0 0 Z " fill="#000000" transform="translate(195.38458251953125,315.8460998535156)"/>
</svg>
